<svg xmlns="http://www.w3.org/2000/svg" width="12" height="7" viewBox="0 0 12 7" fill="none">
  <path d="M5.83664 5.0809L10.9274 0.127231C10.9684 0.0864471 11.0171 0.0542039 11.0707 0.0323673C11.1243 0.0105307 11.1816 -0.000465484 11.2395 1.50786e-05C11.2973 0.000495642 11.3545 0.0124431 11.4077 0.0351666C11.4609 0.0578902 11.5091 0.0909387 11.5494 0.132399C11.5897 0.173859 11.6215 0.222908 11.6427 0.276708C11.664 0.330508 11.6744 0.38799 11.6733 0.445828C11.6722 0.503666 11.6596 0.560711 11.6363 0.613662C11.613 0.666614 11.5794 0.71442 11.5376 0.754315L6.14173 6.00431C6.06005 6.08378 5.95059 6.12824 5.83664 6.12824C5.72269 6.12824 5.61323 6.08378 5.53156 6.00431L0.135724 0.754314C0.0938329 0.714419 0.0602712 0.666613 0.0369777 0.613662C0.0136852 0.56071 0.00112436 0.503665 2.28687e-05 0.445828C-0.00107767 0.38799 0.00930212 0.330507 0.0305624 0.276708C0.0518236 0.222908 0.0835419 0.173859 0.123883 0.132399C0.164226 0.0909382 0.21239 0.0578897 0.265588 0.0351662C0.318787 0.0124426 0.375963 0.000495164 0.433809 1.46063e-05C0.491655 -0.000465952 0.549024 0.0105302 0.602592 0.0323668C0.65616 0.0542034 0.704866 0.0864467 0.745892 0.127231L5.83664 5.0809Z" fill="black"/>
</svg>