<svg xmlns="http://www.w3.org/2000/svg" width="12" height="7" viewBox="0 0 12 7" fill="none">
  <path d="M5.8367 1.04734L0.745948 6.001C0.704922 6.04179 0.656216 6.07403 0.602648 6.09587C0.549079 6.1177 0.491712 6.1287 0.433866 6.12822C0.376019 6.12774 0.318843 6.11579 0.265644 6.09307C0.212446 6.07034 0.164282 6.0373 0.12394 5.99584C0.0835985 5.95438 0.0518794 5.90533 0.0306188 5.85153C0.00935821 5.79773 -0.00102188 5.74024 7.92811e-05 5.68241C0.00118045 5.62457 0.013741 5.56752 0.0370341 5.51457C0.0603271 5.46162 0.0938901 5.41381 0.135781 5.37392L5.53161 0.12392C5.61329 0.044457 5.72275 -2.79278e-06 5.8367 -2.79142e-06C5.95065 -2.79006e-06 6.06011 0.044457 6.14178 0.12392L11.5376 5.37392C11.5795 5.41382 11.6131 5.46162 11.6364 5.51457C11.6597 5.56752 11.6722 5.62457 11.6733 5.68241C11.6744 5.74024 11.664 5.79773 11.6428 5.85153C11.6215 5.90533 11.5898 5.95438 11.5495 5.99584C11.5091 6.0373 11.4609 6.07034 11.4078 6.09307C11.3546 6.11579 11.2974 6.12774 11.2395 6.12822C11.1817 6.1287 11.1243 6.1177 11.0707 6.09587C11.0172 6.07403 10.9685 6.04179 10.9274 6.001L5.8367 1.04734Z" fill="black"/>
</svg>