<svg xmlns="http://www.w3.org/2000/svg" width="22" height="22" viewBox="0 0 22 22" fill="none">
  <path d="M17.1876 8.90081V8.25456C17.1876 4.70798 14.4156 1.83331 11.0001 1.83331C7.58456 1.83331 4.81256 4.70798 4.81256 8.25456V8.90081C4.81366 9.67224 4.59351 10.4278 4.17822 11.0779L3.16256 12.6591C2.23581 14.1029 2.94347 16.0655 4.55589 16.522C8.76899 17.7164 13.2311 17.7164 17.4442 16.522C19.0566 16.0655 19.7643 14.1029 18.8376 12.6601L17.8219 11.0788C17.4063 10.4288 17.1858 9.67325 17.1866 8.90173L17.1876 8.90081Z" stroke="#A1A1AA" stroke-width="1.5"/>
  <path d="M6.875 17.4167C7.47542 19.019 9.09517 20.1667 11 20.1667C12.9048 20.1667 14.5246 19.019 15.125 17.4167" stroke="#A1A1AA" stroke-width="1.5" stroke-linecap="round"/>
</svg>