<svg xmlns="http://www.w3.org/2000/svg" width="22" height="22" viewBox="0 0 22 22" fill="none">
  <path d="M14.9783 8.54517C15.0663 8.46307 15.1374 8.36443 15.1873 8.25488C15.2372 8.14534 15.2651 8.02703 15.2693 7.90671C15.2735 7.78639 15.254 7.66642 15.2119 7.55365C15.1697 7.44088 15.1058 7.33751 15.0237 7.24946C14.9416 7.1614 14.8429 7.09038 14.7334 7.04044C14.6238 6.9905 14.5055 6.96263 14.3852 6.95842C14.2649 6.95421 14.1449 6.97373 14.0321 7.01588C13.9194 7.05803 13.816 7.12198 13.7279 7.20408L11.0458 9.70475L8.54511 7.02167C8.37779 6.85029 8.15004 6.75121 7.91059 6.74563C7.67115 6.74004 7.43902 6.8284 7.26389 6.99179C7.08877 7.15518 6.98454 7.38062 6.97353 7.61988C6.96251 7.85914 7.04557 8.09321 7.20495 8.272L9.70561 10.9542L7.02253 13.4548C6.93136 13.5361 6.85736 13.6348 6.80485 13.745C6.75235 13.8553 6.72241 13.9749 6.71679 14.0969C6.71117 14.2189 6.72999 14.3408 6.77214 14.4555C6.81429 14.5701 6.87892 14.6751 6.96223 14.7644C7.04554 14.8537 7.14586 14.9255 7.25729 14.9755C7.36872 15.0255 7.48902 15.0527 7.61112 15.0555C7.73321 15.0584 7.85465 15.0368 7.96829 14.9921C8.08192 14.9473 8.18548 14.8803 8.27286 14.795L10.955 12.2952L13.4557 14.9774C13.5364 15.0703 13.6351 15.1459 13.7457 15.1998C13.8563 15.2538 13.9766 15.2849 14.0995 15.2913C14.2223 15.2978 14.3453 15.2794 14.4609 15.2373C14.5765 15.1952 14.6825 15.1303 14.7725 15.0464C14.8625 14.9625 14.9347 14.8613 14.9847 14.7489C15.0348 14.6365 15.0617 14.5152 15.0639 14.3922C15.0661 14.2691 15.0435 14.1469 14.9974 14.0328C14.9514 13.9187 14.8828 13.815 14.7959 13.728L12.2961 11.0458L14.9783 8.54517Z" fill="#EF4444"/>
  <path fill-rule="evenodd" clip-rule="evenodd" d="M0.916748 11C0.916748 5.43124 5.43133 0.916656 11.0001 0.916656C16.5688 0.916656 21.0834 5.43124 21.0834 11C21.0834 16.5687 16.5688 21.0833 11.0001 21.0833C5.43133 21.0833 0.916748 16.5687 0.916748 11ZM11.0001 19.25C9.91668 19.25 8.84388 19.0366 7.84294 18.622C6.84201 18.2074 5.93253 17.5997 5.16645 16.8336C4.40037 16.0675 3.79268 15.1581 3.37808 14.1571C2.96347 13.1562 2.75008 12.0834 2.75008 11C2.75008 9.91658 2.96347 8.84379 3.37808 7.84285C3.79268 6.84192 4.40037 5.93244 5.16645 5.16636C5.93253 4.40028 6.84201 3.79259 7.84294 3.37798C8.84388 2.96338 9.91668 2.74999 11.0001 2.74999C13.1881 2.74999 15.2865 3.61918 16.8337 5.16636C18.3809 6.71353 19.2501 8.81195 19.2501 11C19.2501 13.188 18.3809 15.2864 16.8337 16.8336C15.2865 18.3808 13.1881 19.25 11.0001 19.25Z" fill="#EF4444"/>
</svg>