<svg xmlns="http://www.w3.org/2000/svg" width="22" height="22" viewBox="0 0 22 22" fill="none">
  <path d="M12.8335 11V18.2233C12.8701 18.4983 12.7785 18.7917 12.5676 18.9842C12.4828 19.0691 12.3821 19.1366 12.2712 19.1826C12.1603 19.2286 12.0414 19.2522 11.9214 19.2522C11.8013 19.2522 11.6824 19.2286 11.5715 19.1826C11.4607 19.1366 11.3599 19.0691 11.2751 18.9842L9.43262 17.1417C9.33264 17.0439 9.25663 16.9244 9.21051 16.7924C9.16439 16.6604 9.14943 16.5196 9.16679 16.3808V11H9.13929L3.85929 4.235C3.71043 4.0439 3.64326 3.80165 3.67246 3.56119C3.70166 3.32072 3.82485 3.10158 4.01512 2.95167C4.18929 2.82333 4.38179 2.75 4.58345 2.75H17.4168C17.6185 2.75 17.811 2.82333 17.9851 2.95167C18.1754 3.10158 18.2986 3.32072 18.3278 3.56119C18.357 3.80165 18.2898 4.0439 18.141 4.235L12.861 11H12.8335Z" fill="#A1A1AA"/>
</svg>