<svg width="22" height="22" viewBox="0 0 22 22" fill="none" xmlns="http://www.w3.org/2000/svg">
<path d="M9.38942 14.9545L5.5 11.0642L6.79617 9.768L9.38942 12.3603L14.5741 7.17475L15.8712 8.47183L9.38942 14.9527V14.9545Z" fill="#30C968"/>
<path fill-rule="evenodd" clip-rule="evenodd" d="M0.916748 11C0.916748 5.43125 5.43133 0.916667 11.0001 0.916667C16.5688 0.916667 21.0834 5.43125 21.0834 11C21.0834 16.5688 16.5688 21.0833 11.0001 21.0833C5.43133 21.0833 0.916748 16.5688 0.916748 11ZM11.0001 19.25C9.91668 19.25 8.84388 19.0366 7.84294 18.622C6.84201 18.2074 5.93253 17.5997 5.16645 16.8336C4.40037 16.0675 3.79268 15.1581 3.37808 14.1571C2.96347 13.1562 2.75008 12.0834 2.75008 11C2.75008 9.9166 2.96347 8.8438 3.37808 7.84286C3.79268 6.84193 4.40037 5.93245 5.16645 5.16637C5.93253 4.40029 6.84201 3.7926 7.84294 3.37799C8.84388 2.96339 9.91668 2.75 11.0001 2.75C13.1881 2.75 15.2865 3.61919 16.8337 5.16637C18.3809 6.71354 19.2501 8.81196 19.2501 11C19.2501 13.188 18.3809 15.2865 16.8337 16.8336C15.2865 18.3808 13.1881 19.25 11.0001 19.25Z" fill="#30C968"/>
</svg>
